<?xml version="1.0" standalone="no"?>
<!DOCTYPE svg PUBLIC "-//W3C//DTD SVG 20010904//EN"
 "http://www.w3.org/TR/2001/REC-SVG-20010904/DTD/svg10.dtd">
<svg version="1.0" xmlns="http://www.w3.org/2000/svg"
 width="1280.000000pt" height="1276.000000pt" viewBox="0 0 1280.000000 1276.000000"
 preserveAspectRatio="xMidYMid meet">
<metadata>
Created by potrace 1.16, written by Peter Selinger 2001-2019
</metadata>
<g transform="translate(0.000000,1276.000000) scale(0.100000,-0.100000)"
fill="#FFFFFF" stroke="none">
<path d="M5905 12749 c-367 -28 -835 -107 -1145 -193 -30 -8 -80 -22 -110 -30
-70 -18 -237 -71 -315 -99 -33 -12 -64 -22 -70 -23 -12 -3 -192 -71 -220 -84
-11 -5 -59 -25 -108 -44 -141 -58 -584 -269 -597 -285 -3 -4 -16 -12 -30 -19
-69 -34 -339 -193 -365 -215 -5 -4 -59 -41 -119 -80 -60 -40 -121 -81 -136
-92 -15 -11 -40 -29 -56 -40 -16 -11 -31 -22 -34 -25 -3 -3 -43 -34 -90 -70
-47 -35 -90 -69 -97 -75 -6 -5 -24 -20 -40 -32 -16 -12 -41 -33 -55 -45 -14
-13 -35 -30 -46 -38 -20 -16 -67 -57 -190 -169 -138 -124 -426 -419 -523 -534
-13 -15 -35 -41 -49 -56 -14 -16 -37 -44 -52 -62 -14 -19 -36 -45 -47 -59 -11
-14 -24 -29 -28 -35 -5 -5 -40 -50 -79 -100 -72 -92 -119 -156 -202 -280 -26
-38 -50 -72 -53 -75 -6 -5 -191 -308 -229 -375 -54 -95 -207 -395 -245 -480
-7 -16 -25 -55 -38 -85 -14 -30 -46 -107 -72 -170 -25 -63 -50 -124 -54 -135
-111 -271 -241 -729 -306 -1080 -2 -11 -9 -47 -15 -80 -29 -150 -63 -424 -80
-640 -12 -155 -12 -795 0 -950 24 -302 71 -635 120 -850 5 -22 18 -85 30 -140
12 -55 24 -107 27 -115 2 -8 13 -48 24 -89 61 -237 192 -614 296 -856 55 -126
70 -159 160 -340 83 -167 110 -218 157 -300 13 -22 36 -62 51 -90 16 -27 56
-93 90 -145 33 -52 78 -123 99 -156 21 -34 46 -71 57 -83 11 -12 16 -21 12
-21 -4 0 -3 -4 3 -8 6 -4 33 -38 59 -77 27 -38 51 -72 54 -75 3 -3 40 -50 81
-105 41 -55 82 -107 90 -116 8 -9 26 -31 40 -48 14 -18 34 -43 45 -55 11 -12
47 -53 80 -91 105 -120 117 -132 287 -303 176 -175 202 -200 313 -297 79 -70
91 -80 141 -120 20 -16 42 -35 48 -40 48 -45 393 -296 501 -365 39 -25 72 -47
75 -50 3 -3 14 -10 25 -17 11 -7 63 -38 115 -69 52 -32 113 -68 135 -80 22
-12 65 -36 95 -53 50 -28 417 -210 465 -231 11 -5 49 -22 85 -38 36 -16 88
-38 115 -48 28 -10 61 -24 75 -31 14 -7 32 -13 40 -13 9 0 20 -4 25 -8 12 -10
127 -53 220 -82 39 -12 79 -26 90 -30 20 -8 148 -47 252 -76 29 -8 77 -21 105
-29 29 -9 73 -20 98 -25 59 -12 185 -39 235 -51 43 -10 145 -29 315 -57 94
-15 195 -17 955 -17 760 0 862 2 960 17 146 24 271 46 320 57 22 5 65 14 95
20 30 7 71 16 90 21 19 5 80 21 135 34 55 14 118 30 140 36 94 27 211 62 230
70 11 4 52 18 90 30 93 29 208 72 220 82 5 4 15 8 23 8 7 0 32 8 55 19 23 10
68 28 99 39 31 12 74 30 95 42 21 11 41 20 45 20 15 0 292 134 398 192 25 14
71 39 102 56 31 17 65 36 75 41 33 17 278 165 288 174 6 4 60 40 120 80 61 39
112 74 115 77 3 3 28 20 55 39 28 19 66 48 85 63 19 16 40 32 45 36 84 62 176
135 204 162 9 8 28 25 43 36 15 12 57 48 94 80 213 186 516 495 672 684 20 24
44 51 52 60 28 31 101 123 162 205 4 6 20 26 36 45 15 19 44 58 63 85 19 28
36 52 39 55 3 3 38 55 77 115 40 61 76 115 80 120 10 12 151 247 175 290 9 17
24 46 35 65 10 19 20 37 23 40 3 3 14 23 25 45 11 22 22 42 25 45 17 17 207
426 246 530 13 36 29 74 34 85 43 88 152 414 216 642 8 29 21 77 29 105 9 29
20 73 25 98 11 55 38 180 51 235 41 179 87 510 109 795 12 161 12 799 0 955
-22 285 -72 639 -113 815 -9 36 -25 110 -37 165 -30 134 -50 211 -105 400 -15
50 -30 99 -35 110 -4 11 -18 52 -30 90 -29 93 -72 208 -82 220 -4 5 -8 16 -8
25 0 8 -6 26 -13 40 -7 14 -24 54 -37 90 -13 36 -35 85 -47 110 -13 25 -23 48
-23 52 0 8 -95 210 -140 298 -30 59 -57 110 -110 205 -19 33 -41 74 -50 90 -8
17 -42 73 -73 125 -80 131 -81 133 -90 144 -4 6 -36 53 -70 104 -77 114 -168
245 -176 252 -3 3 -40 50 -80 105 -41 55 -80 105 -85 111 -6 6 -24 28 -41 48
-50 63 -149 176 -210 244 -71 77 -371 375 -435 432 -34 30 -78 70 -98 87 -19
18 -48 43 -64 55 -16 13 -39 32 -52 43 -53 47 -78 66 -216 169 -80 60 -161
121 -180 135 -38 29 -156 106 -207 136 -18 11 -33 22 -33 26 0 4 -8 9 -17 13
-10 3 -30 14 -45 23 -44 29 -170 105 -213 129 -22 12 -65 36 -95 53 -68 38
-397 201 -465 231 -27 11 -59 25 -70 30 -100 44 -169 72 -355 140 -63 23 -124
46 -135 51 -11 4 -36 12 -55 18 -19 5 -96 28 -170 51 -166 50 -283 81 -450
116 -41 9 -95 20 -120 26 -25 5 -54 11 -65 13 -11 1 -49 8 -85 14 -199 36
-426 64 -665 81 -152 11 -795 10 -940 -1z m585 -437 c0 -4 10 -18 23 -32 20
-23 116 -140 187 -230 15 -19 50 -63 76 -97 27 -33 56 -71 64 -83 8 -12 26
-37 40 -55 79 -104 345 -500 392 -585 14 -25 50 -86 81 -137 75 -122 145 -251
258 -473 73 -143 97 -194 179 -380 51 -118 52 -120 108 -250 38 -89 65 -161
61 -163 -76 -50 -104 -72 -157 -122 -89 -84 -170 -187 -217 -278 l-40 -77
-363 0 c-200 0 -416 -4 -480 -10 -65 -5 -175 -15 -247 -20 -71 -6 -161 -15
-200 -20 -38 -5 -126 -16 -195 -25 -185 -23 -383 -55 -510 -82 -41 -8 -104
-21 -140 -28 -86 -17 -243 -53 -370 -85 -65 -17 -71 -18 -115 -30 -22 -6 -58
-15 -80 -21 -22 -5 -51 -13 -65 -18 -14 -5 -72 -24 -130 -41 -257 -77 -619
-207 -835 -299 -11 -5 -38 -17 -60 -26 -22 -9 -53 -23 -70 -30 -16 -7 -47 -21
-68 -30 l-39 -17 -62 59 c-90 84 -210 173 -235 173 -6 0 -11 4 -11 10 0 5 -3
9 -7 8 -5 -1 -30 8 -58 21 -79 35 -179 64 -292 82 -69 12 -263 8 -309 -6 -18
-6 -23 -1 -33 37 -6 24 -15 63 -20 88 -5 25 -18 90 -30 145 -20 99 -28 146
-57 320 -36 225 -58 400 -74 610 -6 72 -15 186 -20 255 -6 69 -10 179 -10 246
l0 121 63 59 c34 32 87 79 116 104 30 25 59 50 65 55 50 45 116 95 125 95 6 0
11 4 11 8 0 5 18 21 41 38 22 16 46 34 52 39 12 11 73 54 167 120 30 21 58 43
62 49 5 7 8 7 8 1 0 -6 3 -5 8 1 4 6 32 26 62 45 30 18 61 39 68 46 7 7 19 13
27 13 7 0 15 3 17 8 4 8 85 62 94 62 4 0 37 19 73 42 65 41 492 259 561 287
19 7 62 26 95 41 33 15 76 34 97 43 20 10 40 17 45 17 6 0 24 7 42 16 17 9 37
17 44 18 7 2 19 6 27 9 81 30 160 57 185 63 17 4 35 10 40 14 6 4 26 11 45 15
19 4 41 11 50 16 8 4 33 12 55 18 22 5 83 22 135 37 292 81 644 147 935 175
61 5 144 14 185 18 97 11 530 13 530 3z m711 -42 c52 -6 114 -15 139 -20 25
-5 86 -16 135 -25 142 -25 426 -92 555 -130 30 -9 87 -25 125 -36 39 -11 79
-24 90 -29 11 -5 36 -13 55 -18 40 -11 289 -105 337 -127 17 -8 34 -15 37 -15
3 0 31 -12 63 -26 32 -14 67 -29 78 -34 78 -33 481 -236 495 -250 3 -3 19 -12
35 -21 72 -37 120 -64 125 -70 3 -3 21 -14 40 -25 19 -10 41 -25 48 -31 7 -7
19 -13 27 -13 7 0 15 -3 17 -7 2 -5 57 -44 123 -88 66 -44 138 -93 160 -110
23 -16 53 -39 69 -50 47 -34 79 -59 95 -75 9 -8 32 -26 51 -40 38 -27 39 -28
150 -121 170 -143 435 -400 556 -539 21 -24 48 -54 59 -65 39 -41 194 -229
192 -232 -1 -1 -45 -9 -97 -18 -201 -35 -407 -79 -540 -114 -19 -5 -87 -23
-150 -39 -63 -17 -155 -42 -205 -57 -49 -16 -108 -33 -130 -40 -22 -6 -47 -14
-55 -17 -16 -6 -228 -77 -245 -82 -5 -2 -17 -6 -25 -9 -101 -38 -237 -87 -244
-87 -4 0 -40 33 -80 73 -136 137 -341 250 -521 289 -33 7 -134 14 -224 15
l-164 2 -34 88 c-18 48 -40 102 -47 118 -7 17 -22 53 -32 80 -10 28 -33 80
-51 118 -18 37 -33 70 -33 72 0 26 -256 532 -379 751 -115 203 -363 600 -391
624 -3 3 -25 36 -50 74 -24 38 -49 74 -55 80 -5 6 -26 34 -44 61 -19 28 -53
73 -75 101 -23 28 -48 61 -56 74 -8 12 -21 28 -27 36 -15 14 -17 28 -5 20 5
-3 51 -10 103 -16z m-5246 -2275 c15 -171 36 -348 54 -460 6 -33 15 -91 20
-130 6 -38 15 -92 21 -120 5 -27 22 -111 36 -185 42 -217 43 -222 60 -290 l16
-65 -48 -40 c-86 -70 -194 -184 -233 -245 -8 -14 -18 -27 -21 -30 -6 -6 -85
-163 -85 -170 0 -3 -8 -25 -17 -50 -42 -113 -53 -182 -53 -345 0 -157 9 -229
41 -320 21 -60 18 -70 -29 -106 -23 -19 -44 -36 -47 -39 -3 -3 -25 -21 -50
-40 -25 -19 -47 -37 -50 -40 -3 -4 -14 -13 -26 -21 -27 -18 -121 -97 -154
-129 -15 -14 -53 -47 -86 -75 -186 -158 -567 -541 -814 -819 l-52 -59 5 294
c10 506 73 949 201 1409 15 52 32 113 37 135 6 22 14 47 18 55 5 9 12 31 16
50 4 19 11 40 15 45 4 6 10 24 14 40 6 25 33 104 63 185 3 8 7 20 9 27 1 7 9
27 18 44 9 18 16 36 16 42 0 5 7 25 17 45 9 21 28 64 43 97 15 33 34 76 41 95
29 72 236 478 282 551 26 42 47 79 47 83 0 9 53 90 63 94 4 2 7 10 7 17 0 8 6
20 13 27 7 7 28 38 46 68 19 30 36 57 40 60 3 3 20 25 36 50 44 66 128 183
143 198 6 7 12 16 12 20 0 4 16 24 35 44 19 20 35 40 35 43 0 8 102 132 167
203 24 26 43 52 44 57 3 17 18 -120 34 -300z m9436 -377 c19 -29 39 -59 46
-66 7 -7 13 -20 13 -28 0 -8 4 -14 10 -14 5 0 12 -11 16 -25 3 -14 10 -25 15
-25 5 0 9 -4 9 -10 0 -5 20 -42 44 -82 24 -40 58 -98 75 -128 37 -65 210 -412
230 -461 7 -19 26 -61 41 -94 45 -100 57 -128 75 -180 9 -27 21 -59 25 -70 43
-112 74 -201 110 -325 12 -41 28 -93 35 -115 7 -22 16 -55 20 -74 7 -32 6 -34
-9 -19 -9 9 -40 30 -68 48 -77 45 -91 54 -105 67 -7 6 -26 17 -43 25 -16 7
-30 16 -30 20 0 5 -5 8 -10 8 -6 0 -56 27 -111 60 -55 33 -104 60 -109 60 -6
0 -10 4 -10 8 0 4 -12 13 -27 19 -16 7 -57 29 -93 49 -134 76 -505 259 -655
324 -27 11 -59 25 -70 30 -118 53 -176 76 -345 140 -154 58 -525 184 -630 213
-30 9 -86 25 -124 36 -38 12 -77 21 -86 21 -25 0 -37 19 -44 70 -3 25 -9 59
-12 76 -6 30 -4 32 43 49 26 9 57 21 68 25 60 23 172 62 260 91 55 17 126 40
158 50 31 11 66 19 76 19 11 0 22 4 25 9 3 5 18 11 33 14 16 3 53 12 83 21
111 30 416 106 470 117 265 53 462 88 556 98 7 0 27 -23 45 -51z m-2686 -93
c194 -61 346 -199 412 -375 39 -102 43 -126 43 -230 0 -104 -4 -128 -43 -230
-40 -106 -119 -209 -211 -274 -172 -123 -344 -153 -559 -98 -142 37 -303 175
-375 322 -95 195 -95 365 0 560 72 146 234 285 375 322 21 5 54 13 73 18 51
13 227 4 285 -15z m-1241 -692 c4 -43 13 -104 21 -136 13 -56 12 -87 -5 -87
-4 0 -25 -13 -46 -30 -22 -16 -43 -33 -49 -37 -5 -5 -37 -26 -70 -48 -33 -22
-62 -42 -65 -45 -3 -3 -43 -35 -90 -70 -47 -36 -87 -67 -90 -70 -3 -3 -25 -21
-50 -40 -25 -19 -47 -37 -50 -40 -4 -4 -40 -33 -190 -155 -13 -11 -36 -32 -51
-46 -15 -14 -42 -38 -61 -54 -171 -141 -629 -598 -798 -795 -27 -31 -121 -139
-135 -154 -9 -10 -60 -74 -105 -130 -8 -10 -22 -26 -30 -35 -8 -9 -26 -32 -40
-51 -13 -19 -29 -40 -35 -46 -19 -21 -50 -60 -75 -95 -13 -19 -28 -38 -32 -44
-17 -21 -64 -84 -78 -105 -8 -12 -42 -59 -74 -104 -33 -44 -84 -119 -115 -166
-30 -47 -58 -87 -61 -90 -3 -3 -28 -41 -54 -85 -27 -44 -53 -83 -58 -86 -5 -3
-9 -10 -9 -15 1 -5 -6 -17 -14 -27 -8 -9 -15 -20 -15 -23 0 -3 -16 -30 -35
-60 -19 -30 -35 -58 -35 -62 0 -5 -8 -17 -17 -28 -10 -11 -27 -36 -37 -57 -22
-42 -19 -41 -66 -27 -79 24 -190 40 -270 40 -105 0 -291 -34 -342 -61 -16 -9
-23 -7 -34 10 -8 11 -20 26 -27 33 -7 7 -22 29 -34 48 -12 19 -30 44 -40 55
-10 11 -36 47 -58 80 -22 33 -43 62 -46 65 -3 3 -41 57 -83 120 -42 63 -81
120 -86 127 -6 7 -10 16 -10 22 0 5 -4 11 -8 13 -16 6 -272 438 -353 596 -16
30 -33 60 -40 68 -14 17 -17 14 41 49 25 15 47 31 50 34 3 3 27 24 55 46 52
41 137 129 164 168 8 12 18 24 21 27 19 16 120 206 120 226 0 3 7 20 15 37 35
77 55 198 56 344 0 133 -5 192 -27 267 -8 27 -14 55 -14 62 0 7 35 27 78 44
103 44 183 79 204 90 10 6 23 10 30 10 7 0 24 6 38 13 14 7 54 23 90 36 36 13
74 27 85 31 56 23 358 127 390 134 17 4 159 47 185 57 14 4 43 13 65 18 22 5
85 22 140 36 107 29 184 48 280 69 121 27 262 55 325 67 36 6 85 15 110 19 90
17 258 41 375 55 66 8 134 16 150 19 111 21 522 42 846 44 l266 2 7 -77z
m2171 -265 c22 -5 49 -13 60 -18 11 -4 67 -22 125 -40 58 -17 114 -35 125 -39
11 -4 52 -18 90 -30 39 -13 79 -26 90 -31 11 -5 61 -23 110 -41 50 -18 94 -36
99 -41 6 -4 17 -8 25 -8 9 -1 34 -9 56 -20 22 -11 45 -19 51 -20 5 0 28 -8 50
-19 70 -33 133 -61 139 -61 3 0 38 -15 78 -34 40 -18 104 -48 142 -66 102 -47
259 -124 265 -130 3 -3 26 -15 52 -28 25 -12 115 -61 200 -109 84 -47 163 -91
175 -97 13 -6 23 -14 23 -18 0 -5 5 -8 12 -8 7 0 53 -26 103 -57 131 -83 319
-206 325 -212 3 -4 39 -29 80 -56 84 -56 84 -56 125 -90 17 -14 37 -28 47 -30
12 -4 18 -23 23 -68 3 -34 10 -84 15 -112 39 -216 49 -993 17 -1295 -19 -179
-40 -336 -55 -415 -6 -27 -17 -88 -26 -135 -15 -80 -27 -138 -60 -285 -19 -85
-111 -405 -126 -440 -5 -11 -12 -31 -15 -45 -8 -27 -113 -310 -140 -375 -10
-22 -26 -60 -37 -85 -10 -25 -23 -54 -28 -65 -19 -45 -202 -414 -231 -465 -17
-30 -51 -88 -75 -128 -24 -40 -44 -77 -44 -82 0 -6 -4 -10 -10 -10 -5 0 -12
-11 -16 -25 -3 -14 -10 -25 -15 -25 -5 0 -9 -6 -9 -14 0 -8 -6 -21 -13 -28 -7
-7 -28 -38 -47 -68 -19 -30 -37 -57 -40 -60 -3 -3 -18 -25 -35 -50 -16 -25
-57 -82 -90 -127 -33 -44 -69 -94 -80 -109 -11 -15 -30 -39 -42 -52 -13 -14
-23 -28 -23 -31 0 -3 -10 -17 -23 -31 -12 -14 -38 -45 -57 -70 -19 -24 -42
-52 -50 -61 -8 -9 -50 -55 -94 -103 l-79 -86 -116 0 c-64 0 -172 4 -241 10
-69 5 -186 15 -260 20 -139 11 -353 34 -450 49 -30 5 -91 14 -135 20 -44 6
-102 15 -130 21 -27 5 -102 19 -165 30 -116 21 -310 63 -365 80 -16 4 -46 11
-65 15 -19 4 -49 12 -67 18 l-32 11 0 140 c0 145 -6 187 -47 321 -22 71 -89
222 -104 235 -4 3 -23 31 -44 63 -21 31 -72 91 -113 132 l-75 76 16 33 c9 19
16 39 16 45 0 6 4 19 9 29 5 9 17 40 26 67 9 28 21 59 26 70 23 52 157 487
199 645 5 19 20 76 34 125 13 50 33 135 45 190 12 55 26 118 31 140 16 72 39
189 51 255 6 36 15 88 20 115 41 209 87 615 109 945 12 181 12 940 0 1115 -16
242 -31 410 -40 458 -6 26 -10 65 -10 86 0 35 3 39 38 49 47 15 207 106 263
152 46 37 130 120 164 161 65 78 146 223 175 312 10 33 15 38 34 32 11 -3 39
-11 61 -17z m-6696 -107 c52 -14 151 -59 169 -78 7 -7 18 -13 24 -13 6 0 42
-33 82 -74 82 -85 100 -106 89 -106 -4 0 -3 -4 3 -8 15 -10 61 -109 75 -163
21 -75 23 -242 4 -317 -27 -106 -98 -230 -172 -300 -33 -30 -128 -102 -136
-102 -4 0 -30 -11 -59 -25 -167 -77 -347 -71 -527 18 -204 101 -351 335 -351
559 0 56 22 174 40 213 5 11 16 38 26 60 19 44 76 125 121 172 68 72 173 134
278 164 70 20 261 20 334 0z m4992 -427 c95 -64 243 -133 324 -149 66 -14 125
-25 161 -31 l41 -6 12 -117 c6 -64 16 -168 21 -231 6 -63 14 -169 20 -235 13
-154 13 -855 0 -999 -6 -61 -15 -167 -20 -236 -11 -138 -34 -342 -49 -435 -5
-33 -14 -94 -20 -135 -6 -41 -16 -97 -21 -125 -5 -27 -22 -111 -36 -185 -27
-141 -31 -157 -59 -280 -34 -147 -43 -186 -69 -285 -30 -110 -66 -233 -101
-340 -12 -38 -33 -104 -45 -145 -13 -41 -26 -79 -29 -85 -4 -5 -15 -35 -25
-65 -20 -62 -43 -124 -59 -158 -9 -18 -17 -22 -37 -18 -180 37 -297 45 -406
26 -82 -15 -186 -40 -206 -51 -10 -5 -23 -9 -30 -9 -17 0 -182 -84 -198 -100
-3 -3 -25 -19 -50 -35 -49 -33 -194 -173 -226 -219 l-20 -30 -95 54 c-113 65
-446 267 -462 281 -7 6 -52 37 -102 70 -119 79 -277 190 -310 217 -6 5 -24 17
-40 28 -17 10 -32 21 -35 24 -3 3 -25 21 -50 40 -25 19 -50 39 -57 45 -6 5
-24 20 -40 32 -15 12 -39 31 -53 43 -14 12 -37 29 -52 38 -27 16 -37 45 -19
56 4 3 12 20 16 38 4 18 9 35 10 38 1 3 5 19 9 35 4 17 11 47 17 67 14 52 13
320 -1 382 -24 104 -72 238 -111 313 -23 43 -44 80 -48 83 -3 3 -20 25 -36 49
-17 25 -58 73 -92 108 -35 35 -63 66 -63 69 0 11 233 389 242 392 4 2 8 7 8
12 0 9 60 104 86 135 9 11 32 45 52 75 29 45 131 189 159 225 4 6 44 57 88
115 44 58 84 110 90 116 13 15 36 43 114 139 67 82 86 104 206 240 73 83 378
398 454 469 23 23 62 59 85 81 50 48 210 191 291 260 33 28 66 57 75 65 8 8
44 38 79 65 35 28 91 72 125 98 52 42 104 81 246 187 14 11 46 34 73 53 l47
34 73 -71 c40 -39 107 -94 148 -122z m-5906 -956 c7 -7 30 -26 50 -43 21 -16
43 -35 49 -41 36 -35 195 -119 289 -153 115 -43 189 -55 329 -56 l137 0 24
-45 c22 -42 67 -125 134 -250 17 -30 44 -78 62 -106 17 -28 31 -56 31 -63 0
-6 5 -11 10 -11 6 0 10 -4 10 -9 0 -5 24 -48 53 -96 28 -47 57 -93 62 -103 28
-46 194 -299 208 -317 5 -5 35 -48 67 -95 32 -47 63 -89 67 -95 31 -37 123
-164 123 -170 0 -4 -11 -16 -26 -27 -14 -11 -51 -55 -82 -97 -48 -65 -74 -110
-152 -272 -5 -9 -20 -65 -35 -125 -45 -180 -36 -413 20 -582 71 -207 194 -384
355 -505 30 -23 60 -46 66 -52 6 -5 27 -19 48 -30 28 -15 36 -25 33 -40 -10
-47 -60 -241 -65 -255 -3 -8 -11 -40 -18 -70 -7 -30 -17 -73 -22 -95 -63 -264
-134 -653 -157 -865 -2 -19 -8 -71 -14 -115 -6 -44 -15 -129 -21 -190 -5 -60
-14 -166 -21 -235 -6 -69 -14 -272 -17 -453 l-7 -327 -35 20 c-19 11 -47 26
-62 33 -16 6 -28 15 -28 19 0 4 -5 8 -12 8 -6 0 -55 27 -109 60 -53 33 -100
60 -104 60 -3 0 -11 5 -18 10 -7 6 -77 54 -157 106 -80 53 -157 106 -172 118
-15 11 -43 32 -63 46 -34 24 -57 42 -100 78 -11 9 -32 25 -46 34 -14 9 -32 23
-40 30 -8 7 -54 46 -104 87 -49 41 -99 84 -110 95 -11 12 -40 39 -65 60 -127
110 -400 390 -505 517 -53 64 -121 145 -125 149 -3 3 -17 21 -30 40 -13 19
-27 37 -30 40 -3 3 -21 25 -40 50 -19 25 -37 47 -40 50 -3 3 -16 21 -27 40
-12 19 -30 44 -40 55 -43 47 -343 519 -343 539 0 4 -15 30 -33 59 -31 48 -217
418 -217 430 0 3 -15 38 -33 79 -19 40 -44 102 -57 138 -13 36 -30 76 -37 90
-7 14 -13 32 -13 41 0 8 -4 19 -9 25 -10 10 -70 187 -121 354 -17 58 -35 116
-40 130 -16 50 -71 287 -94 405 -9 44 -20 104 -26 133 -49 252 -49 241 5 309
26 32 61 76 79 97 17 22 38 47 46 55 8 9 31 37 49 61 35 45 52 64 186 215 131
148 457 477 587 595 40 36 81 74 92 85 12 12 48 43 81 70 33 28 66 57 75 66 8
8 38 33 65 55 28 21 55 43 61 49 6 5 28 24 49 40 21 17 50 40 64 52 30 26 38
27 56 11z m2594 -1809 c172 -53 283 -127 365 -243 123 -172 153 -344 98 -559
-36 -138 -174 -301 -317 -373 -191 -97 -379 -97 -570 0 -142 71 -281 236 -317
373 -25 98 -30 144 -24 223 14 211 119 385 301 501 36 23 100 50 180 77 42 14
241 14 284 1z m647 -1421 c16 -12 31 -25 34 -28 3 -3 34 -27 70 -55 36 -27 71
-55 78 -62 7 -7 17 -13 21 -13 4 0 16 -8 27 -17 20 -18 97 -78 130 -101 62
-42 191 -132 199 -139 19 -15 276 -183 317 -208 10 -5 55 -33 100 -61 46 -29
110 -66 143 -84 33 -18 71 -40 85 -50 14 -9 45 -27 70 -39 83 -41 80 -35 69
-147 -32 -319 77 -631 300 -856 l76 -77 -27 -38 c-15 -21 -35 -47 -44 -58 -9
-11 -28 -38 -42 -60 -15 -22 -29 -42 -32 -45 -3 -3 -34 -43 -70 -90 -35 -47
-68 -89 -72 -95 -4 -5 -23 -28 -40 -51 -18 -22 -44 -55 -58 -73 -14 -17 -34
-42 -45 -55 -11 -12 -42 -49 -70 -81 -228 -268 -531 -581 -760 -787 l-41 -37
-109 15 c-109 14 -129 17 -295 48 -199 37 -349 73 -575 140 -27 8 -68 20 -90
26 -22 6 -49 15 -60 20 -11 5 -36 13 -55 19 -51 14 -170 58 -177 65 -4 3 -13
6 -22 6 -9 1 -34 9 -56 20 -22 11 -46 19 -53 20 -7 0 -20 4 -30 10 -9 5 -33
16 -53 25 -33 15 -37 20 -43 68 -9 82 -7 554 4 711 30 421 31 438 64 691 24
184 64 437 87 540 5 28 12 59 14 70 3 19 40 186 70 315 7 30 25 98 40 150 14
52 31 115 36 140 l11 45 81 -3 c111 -5 284 21 359 52 18 8 38 15 43 16 25 6
203 103 226 123 59 53 115 96 125 97 6 0 24 -10 40 -22z m2553 -499 c172 -53
283 -127 365 -243 88 -122 121 -226 121 -376 0 -114 -13 -165 -67 -279 -33
-68 -47 -88 -118 -161 -109 -112 -289 -190 -440 -190 -77 0 -192 30 -280 73
-145 70 -286 233 -322 374 -25 98 -30 144 -24 223 14 211 119 385 301 501 36
23 100 50 180 77 42 14 241 14 284 1z m851 -1199 c26 -9 100 -27 230 -55 41
-9 91 -20 110 -25 19 -5 87 -19 150 -30 63 -11 162 -29 220 -40 184 -34 404
-62 660 -85 91 -8 195 -17 232 -21 l66 -7 -31 -26 c-18 -14 -34 -28 -37 -31
-3 -3 -32 -28 -65 -55 -33 -28 -62 -52 -65 -55 -3 -3 -21 -17 -40 -30 -19 -14
-42 -32 -50 -40 -9 -8 -28 -24 -44 -35 -15 -11 -65 -47 -109 -80 -45 -33 -102
-74 -127 -90 -25 -17 -47 -32 -50 -35 -3 -3 -30 -21 -60 -40 -30 -19 -61 -40
-68 -47 -7 -7 -20 -13 -28 -13 -8 0 -14 -4 -14 -10 0 -5 -11 -12 -25 -16 -14
-3 -25 -10 -25 -15 0 -5 -5 -9 -10 -9 -6 0 -39 -17 -73 -39 -112 -70 -489
-265 -602 -311 -18 -8 -89 -39 -187 -83 -20 -10 -40 -17 -46 -17 -5 0 -23 -7
-38 -15 -16 -8 -36 -15 -45 -15 -9 0 -18 -3 -22 -6 -7 -7 -126 -51 -177 -65
-19 -6 -44 -14 -55 -19 -11 -5 -54 -18 -95 -30 -41 -12 -86 -26 -100 -30 -52
-19 -255 -71 -375 -96 -258 -54 -454 -86 -645 -104 -58 -6 -149 -15 -203 -20
-54 -6 -195 -10 -313 -10 l-216 0 85 88 c167 171 373 396 452 493 11 13 52 63
90 109 39 47 86 105 105 130 19 25 37 47 41 50 3 3 54 70 112 150 59 80 111
150 115 156 5 6 26 36 47 67 21 31 41 57 44 57 4 0 34 -7 66 -17 44 -12 104
-16 225 -17 167 -1 210 5 350 50 47 15 206 92 227 109 6 5 29 21 49 35 58 38
215 198 253 257 36 56 40 57 111 33z"/>
</g>
</svg>
